<svg width="300" height="282" viewBox="0 0 300 282" fill="none" xmlns="http://www.w3.org/2000/svg">
<g opacity="0.7">
<path opacity="0.7" d="M255.134 2.44826H202.368V64.9959H255.134V2.44826Z" fill="#F4F4F4"/>
<path opacity="0.7" d="M255.134 64.9959H256.846V2.44829H255.134V64.9959Z" fill="#F4F4F4"/>
<path opacity="0.05" d="M255.134 64.9959H256.846V2.44829H255.134V64.9959Z" fill="#292A2E"/>
<path opacity="0.05" d="M245.522 14.9594H211.98V52.485H245.522V14.9594Z" fill="#292A2E"/>
<path opacity="0.03" d="M245.522 14.9594H243.774V52.485H245.522V14.9594Z" fill="#292A2E"/>
<path opacity="0.7" d="M298.288 81.8858H255.134V125.436H298.288V81.8858Z" fill="#F4F4F4"/>
<path opacity="0.05" d="M290.427 89.8191H262.996V117.503H290.427V89.8191Z" fill="#292A2E"/>
<path opacity="0.7" d="M298.288 125.436H300V81.8857H298.288V125.436Z" fill="#F4F4F4"/>
<path opacity="0.05" d="M298.288 125.436H300V81.8857H298.288V125.436Z" fill="#292A2E"/>
<path opacity="0.03" d="M290.427 89.8191H288.679V117.503H290.427V89.8191Z" fill="#292A2E"/>
</g>
<g opacity="0.7">
<path opacity="0.7" d="M147.095 0H22.8694V124.226H147.095V0Z" fill="#F4F4F4"/>
<path opacity="0.7" d="M22.8695 0H21.4456V124.226H22.8695V0Z" fill="#F4F4F4"/>
<path opacity="0.05" d="M22.8695 0H21.4456V124.226H22.8695V0Z" fill="#292A2E"/>
<path opacity="0.05" d="M52.9638 85.6019V53.1005H79.5873V71.9831H120.827V105.417H138.355V124.226H120.827H117.451H28.8452V85.6019H52.9638Z" fill="#292A2E"/>
<g opacity="0.7">
<path opacity="0.34" d="M76.1701 56.6293H56.7825V60.1581H76.1701V56.6293Z" fill="#FFFFFA"/>
<path opacity="0.34" d="M76.1701 63.9424H56.7825V67.4713H76.1701V63.9424Z" fill="#FFFFFA"/>
<path opacity="0.34" d="M76.1701 71.2552H56.7825V74.784H76.1701V71.2552Z" fill="#FFFFFA"/>
</g>
<g opacity="0.7">
<path opacity="0.34" d="M35.8566 89.0272H32.2832V92.5561H35.8566V89.0272Z" fill="#FFFFFA"/>
<path opacity="0.34" d="M35.8566 96.3399H32.2833V99.8687H35.8566V96.3399Z" fill="#FFFFFA"/>
<path opacity="0.34" d="M35.8566 103.653H32.2833V107.181H35.8566V103.653Z" fill="#FFFFFA"/>
<path opacity="0.34" d="M42.4674 89.0271H38.8941V92.556H42.4674V89.0271Z" fill="#FFFFFA"/>
<path opacity="0.34" d="M42.4674 96.3399H38.8941V99.8687H42.4674V96.3399Z" fill="#FFFFFA"/>
<path opacity="0.34" d="M42.4674 103.653H38.8941V107.181H42.4674V103.653Z" fill="#FFFFFA"/>
<path opacity="0.34" d="M48.8995 89.0271H45.3262V92.556H48.8995V89.0271Z" fill="#FFFFFA"/>
<path opacity="0.34" d="M48.8995 96.3399H45.3262V99.8687H48.8995V96.3399Z" fill="#FFFFFA"/>
<path opacity="0.34" d="M48.8995 103.653H45.3262V107.181H48.8995V103.653Z" fill="#FFFFFA"/>
</g>
<path opacity="0.7" d="M22.8694 61.416H47.8657V0H49.933V61.416H117.451V0H119.518V61.416H147.095V63.4833H119.518V124.226H117.451V63.4833H49.933V124.226H47.8657V63.4833H22.8694V61.416Z" fill="white"/>
<path opacity="0.7" d="M152.044 124.076H17.9207V128.207H152.044V124.076Z" fill="#F4F4F4"/>
<path opacity="0.1" d="M152.044 124.076H17.9207V128.207H152.044V124.076Z" fill="#292A2E"/>
<path opacity="0.1" d="M17.9207 124.076H15.9844V128.207H17.9207V124.076Z" fill="#292A2E"/>
<path opacity="0.1" d="M17.9207 124.076H15.9844V128.207H17.9207V124.076Z" fill="#292A2E"/>
</g>
<path d="M94.5668 15.425H239.97C242.065 15.425 244.073 16.257 245.554 17.7381C247.035 19.2191 247.867 21.2278 247.867 23.3223V197.474C247.867 199.614 247.017 201.666 245.504 203.179C243.991 204.693 241.938 205.543 239.798 205.543H94.7388C92.5988 205.543 90.5464 204.693 89.0331 203.179C87.5199 201.666 86.6698 199.614 86.6698 197.474V23.3214C86.67 21.2271 87.5021 19.2187 88.9831 17.7379C90.464 16.257 92.4725 15.4251 94.5668 15.425V15.425Z" fill="white"/>
<path d="M239.798 205.85H94.7389C92.5175 205.85 90.3871 204.967 88.8164 203.396C87.2456 201.826 86.3632 199.695 86.3632 197.474V23.0152C86.3634 20.9208 87.1954 18.9124 88.6764 17.4315C90.1574 15.9507 92.1659 15.1187 94.2602 15.1187H240.277C242.371 15.1187 244.38 15.9507 245.861 17.4317C247.342 18.9127 248.174 20.9213 248.174 23.0158V197.474C248.174 199.695 247.292 201.826 245.721 203.396C244.15 204.967 242.02 205.85 239.798 205.85V205.85ZM86.9765 23.3086V197.474C86.9765 198.493 87.1772 199.503 87.5673 200.444C87.9574 201.386 88.5292 202.242 89.25 202.963C89.9708 203.684 90.8266 204.255 91.7683 204.645C92.7101 205.035 93.7195 205.236 94.7389 205.236H239.798C241.857 205.236 243.832 204.418 245.287 202.963C246.743 201.507 247.561 199.533 247.561 197.474V23.232C247.561 22.247 247.367 21.2716 246.99 20.3616C246.612 19.4516 246.06 18.6248 245.363 17.9284C244.667 17.2319 243.84 16.6795 242.93 16.3027C242.019 15.9258 241.044 15.732 240.059 15.7321H94.5537C92.5442 15.7321 90.617 16.5303 89.1961 17.9512C87.7751 19.372 86.9767 21.2992 86.9765 23.3086V23.3086Z" fill="#292A2E"/>
<path d="M117.94 53.2303H100.319C99.3367 53.2292 98.3953 52.8386 97.7009 52.1443C97.0064 51.45 96.6157 50.5086 96.6144 49.5267V31.9054C96.6156 30.9234 97.0062 29.9818 97.7006 29.2874C98.3951 28.593 99.3366 28.2023 100.319 28.2012H117.94C118.922 28.2022 119.863 28.5928 120.558 29.2873C121.252 29.9817 121.643 30.9233 121.644 31.9054V49.5267C121.643 50.5087 121.252 51.4501 120.558 52.1444C119.863 52.8387 118.922 53.2293 117.94 53.2303V53.2303ZM100.319 28.8139C99.4992 28.8149 98.7136 29.1408 98.1342 29.7203C97.5547 30.2997 97.2287 31.0854 97.2278 31.9048V49.5267C97.2287 50.3461 97.5547 51.1317 98.1342 51.7112C98.7136 52.2906 99.4992 52.6166 100.319 52.6176H117.94C118.759 52.6167 119.545 52.2908 120.124 51.7113C120.704 51.1318 121.03 50.3462 121.031 49.5267V31.9054C121.03 31.0859 120.704 30.3003 120.124 29.7208C119.545 29.1413 118.759 28.8154 117.94 28.8145L100.319 28.8139Z" fill="#292A2E"/>
<path d="M117.94 88.1409H100.319C99.3366 88.1398 98.3951 87.7491 97.7006 87.0547C97.0062 86.3603 96.6156 85.4187 96.6144 84.4366V66.8157C96.6155 65.8336 97.0061 64.892 97.7005 64.1975C98.395 63.503 99.3366 63.1123 100.319 63.1112H117.94C118.922 63.1123 119.863 63.503 120.558 64.1975C121.252 64.892 121.643 65.8336 121.644 66.8157V84.4366C121.643 85.4188 121.252 86.3604 120.558 87.0548C119.863 87.7493 118.922 88.1399 117.94 88.1409V88.1409ZM100.319 63.7254C99.4992 63.7264 98.7135 64.0524 98.134 64.6319C97.5546 65.2114 97.2287 65.9971 97.2278 66.8167V84.4376C97.2287 85.2571 97.5546 86.0427 98.1341 86.6222C98.7135 87.2017 99.4992 87.5276 100.319 87.5285H117.94C118.759 87.5276 119.545 87.2017 120.124 86.6222C120.704 86.0427 121.03 85.2571 121.031 84.4376V66.8157C121.03 65.9962 120.704 65.2105 120.124 64.631C119.545 64.0515 118.759 63.7255 117.94 63.7245L100.319 63.7254Z" fill="#292A2E"/>
<path d="M117.94 123.051H100.319C99.3366 123.05 98.3951 122.66 97.7006 121.965C97.0062 121.271 96.6156 120.329 96.6144 119.347V101.726C96.6156 100.744 97.0062 99.8027 97.7006 99.1083C98.3951 98.4138 99.3366 98.0232 100.319 98.0221H117.94C118.922 98.0231 119.863 98.4137 120.558 99.1082C121.252 99.8026 121.643 100.744 121.644 101.726V119.347C121.643 120.329 121.252 121.271 120.558 121.965C119.863 122.66 118.922 123.05 117.94 123.051ZM100.319 98.6354C99.4992 98.6363 98.7135 98.9622 98.1341 99.5417C97.5546 100.121 97.2287 100.907 97.2278 101.726V119.347C97.2287 120.167 97.5546 120.952 98.1341 121.532C98.7135 122.111 99.4992 122.437 100.319 122.438H117.94C118.759 122.437 119.545 122.111 120.124 121.532C120.704 120.952 121.03 120.167 121.031 119.347V101.726C121.03 100.907 120.704 100.121 120.124 99.5417C119.545 98.9622 118.759 98.6363 117.94 98.6354H100.319Z" fill="#292A2E"/>
<path d="M117.94 157.483H100.319C99.3366 157.481 98.3951 157.091 97.7006 156.396C97.0062 155.702 96.6156 154.76 96.6144 153.778V136.157C96.6155 135.175 97.0061 134.234 97.7005 133.539C98.395 132.845 99.3366 132.454 100.319 132.453H117.94C118.922 132.454 119.863 132.845 120.558 133.539C121.252 134.234 121.643 135.175 121.644 136.157V153.778C121.643 154.76 121.252 155.702 120.558 156.397C119.863 157.091 118.922 157.482 117.94 157.483V157.483ZM100.319 133.066C99.4991 133.067 98.7134 133.393 98.134 133.973C97.5545 134.552 97.2286 135.338 97.2278 136.157V153.778C97.2287 154.598 97.5547 155.383 98.1342 155.963C98.7136 156.542 99.4992 156.868 100.319 156.869H117.94C118.759 156.868 119.545 156.542 120.124 155.963C120.704 155.384 121.03 154.598 121.031 153.778V136.157C121.03 135.338 120.704 134.552 120.124 133.973C119.545 133.393 118.759 133.067 117.94 133.066H100.319Z" fill="#292A2E"/>
<path d="M117.94 191.913H100.319C99.3366 191.912 98.395 191.521 97.7005 190.827C97.0061 190.132 96.6155 189.191 96.6144 188.209V170.588C96.6155 169.606 97.0061 168.664 97.7005 167.97C98.395 167.275 99.3366 166.885 100.319 166.883H117.94C118.922 166.885 119.863 167.275 120.558 167.97C121.252 168.664 121.643 169.606 121.644 170.588V188.209C121.643 189.191 121.252 190.132 120.558 190.827C119.863 191.521 118.922 191.912 117.94 191.913V191.913ZM100.319 167.496C99.4992 167.497 98.7135 167.823 98.134 168.403C97.5546 168.982 97.2287 169.768 97.2278 170.588V188.209C97.2287 189.028 97.5546 189.814 98.134 190.393C98.7135 190.973 99.4992 191.299 100.319 191.3H117.94C118.759 191.299 119.545 190.973 120.124 190.393C120.704 189.814 121.03 189.028 121.031 188.209V170.588C121.03 169.768 120.704 168.983 120.124 168.403C119.545 167.824 118.759 167.498 117.94 167.497L100.319 167.496Z" fill="#292A2E"/>
<path d="M105.995 82.6757C105.678 82.6759 105.373 82.5531 105.145 82.3331L100.009 77.3958C99.8925 77.2841 99.7995 77.1507 99.7349 77.0031C99.6703 76.8555 99.6354 76.6967 99.6322 76.5356C99.6291 76.3746 99.6576 76.2144 99.7163 76.0644C99.775 75.9144 99.8627 75.7774 99.9743 75.6612C100.086 75.5451 100.219 75.4521 100.367 75.3875C100.515 75.3229 100.673 75.288 100.834 75.2848C100.996 75.2817 101.156 75.3102 101.306 75.3689C101.456 75.4276 101.593 75.5153 101.709 75.6269L105.974 79.7274L116.665 68.9388C116.895 68.7115 117.205 68.5841 117.528 68.5842C117.851 68.5843 118.161 68.712 118.391 68.9394C118.62 69.1669 118.751 69.4757 118.754 69.7989C118.757 70.1221 118.633 70.4334 118.408 70.6653L106.866 82.3111C106.752 82.4266 106.617 82.5183 106.467 82.5809C106.318 82.6435 106.157 82.6757 105.995 82.6757V82.6757Z" fill="#F6605D"/>
<path d="M105.995 117.586C105.678 117.587 105.373 117.464 105.145 117.244L100.009 112.307C99.7741 112.081 99.6387 111.772 99.6322 111.447C99.6258 111.121 99.7489 110.807 99.9743 110.572C100.2 110.338 100.509 110.202 100.834 110.196C101.16 110.189 101.474 110.312 101.709 110.538L105.974 114.637L116.665 103.849C116.894 103.618 117.205 103.488 117.531 103.486C117.856 103.485 118.169 103.612 118.4 103.841C118.631 104.07 118.761 104.382 118.763 104.707C118.764 105.033 118.637 105.345 118.408 105.576L106.866 117.222C106.752 117.337 106.617 117.429 106.467 117.492C106.317 117.554 106.157 117.586 105.995 117.586V117.586Z" fill="#F6605D"/>
<path opacity="0.5" d="M234.619 35.2594H131.275C130.802 35.2594 130.419 35.6426 130.419 36.1153C130.419 36.588 130.802 36.9712 131.275 36.9712H234.619C235.091 36.9712 235.475 36.588 235.475 36.1153C235.475 35.6426 235.091 35.2594 234.619 35.2594Z" fill="#262626"/>
<path opacity="0.5" d="M197.818 44.4594H131.275C130.802 44.4594 130.419 44.8427 130.419 45.3154C130.419 45.7881 130.802 46.1713 131.275 46.1713H197.818C198.291 46.1713 198.674 45.7881 198.674 45.3154C198.674 44.8427 198.291 44.4594 197.818 44.4594Z" fill="#262626"/>
<path opacity="0.5" d="M234.619 70.17H131.275C130.802 70.17 130.419 70.5532 130.419 71.0259C130.419 71.4986 130.802 71.8818 131.275 71.8818H234.619C235.091 71.8818 235.475 71.4986 235.475 71.0259C235.475 70.5532 235.091 70.17 234.619 70.17Z" fill="#262626"/>
<path opacity="0.5" d="M197.818 79.37H131.275C130.802 79.37 130.419 79.7532 130.419 80.2259C130.419 80.6987 130.802 81.0819 131.275 81.0819H197.818C198.291 81.0819 198.674 80.6987 198.674 80.2259C198.674 79.7532 198.291 79.37 197.818 79.37Z" fill="#262626"/>
<path opacity="0.5" d="M234.619 105.081H131.275C130.802 105.081 130.419 105.464 130.419 105.936C130.419 106.409 130.802 106.792 131.275 106.792H234.619C235.091 106.792 235.475 106.409 235.475 105.936C235.475 105.464 235.091 105.081 234.619 105.081Z" fill="#262626"/>
<path opacity="0.5" d="M197.818 114.281H131.275C130.802 114.281 130.419 114.664 130.419 115.137C130.419 115.609 130.802 115.992 131.275 115.992H197.818C198.291 115.992 198.674 115.609 198.674 115.137C198.674 114.664 198.291 114.281 197.818 114.281Z" fill="#262626"/>
<path opacity="0.5" d="M234.619 139.512H131.275C130.802 139.512 130.419 139.895 130.419 140.368C130.419 140.84 130.802 141.223 131.275 141.223H234.619C235.091 141.223 235.475 140.84 235.475 140.368C235.475 139.895 235.091 139.512 234.619 139.512Z" fill="#262626"/>
<path opacity="0.5" d="M197.818 148.712H131.275C130.802 148.712 130.419 149.095 130.419 149.568C130.419 150.04 130.802 150.424 131.275 150.424H197.818C198.291 150.424 198.674 150.04 198.674 149.568C198.674 149.095 198.291 148.712 197.818 148.712Z" fill="#262626"/>
<path opacity="0.5" d="M234.619 173.942H131.275C130.802 173.942 130.419 174.326 130.419 174.798C130.419 175.271 130.802 175.654 131.275 175.654H234.619C235.091 175.654 235.475 175.271 235.475 174.798C235.475 174.326 235.091 173.942 234.619 173.942Z" fill="#262626"/>
<path opacity="0.5" d="M197.818 183.143H131.275C130.802 183.143 130.419 183.526 130.419 183.998C130.419 184.471 130.802 184.854 131.275 184.854H197.818C198.291 184.854 198.674 184.471 198.674 183.998C198.674 183.526 198.291 183.143 197.818 183.143Z" fill="#262626"/>
<path d="M105.11 46.9892C105.199 46.7695 105.358 46.585 105.562 46.4638C105.766 46.3426 106.004 46.2914 106.239 46.3179C106.239 46.2989 106.223 46.2529 106.256 46.2532L105.489 45.7686C105.26 45.6307 105.088 45.4145 105.006 45.1599C104.924 44.9053 104.937 44.6296 105.042 44.3837C105.154 44.1441 105.351 43.9546 105.594 43.852C105.838 43.7494 106.111 43.7409 106.361 43.8283C106.358 43.8179 106.365 43.8075 106.366 43.7977L106.05 43.5986C105.835 43.4678 105.671 43.2666 105.587 43.029C105.503 42.7913 105.503 42.532 105.588 42.2947C105.645 42.1471 105.734 42.0139 105.848 41.9046C105.962 41.7954 106.099 41.7129 106.249 41.663C106.399 41.6131 106.558 41.5972 106.715 41.6162C106.872 41.6353 107.023 41.689 107.156 41.7733L107.884 42.2333C107.886 42.229 107.885 42.2244 107.886 42.2205C107.888 42.2165 107.896 42.2146 107.9 42.21C107.729 42.039 107.622 41.8149 107.595 41.5746C107.568 41.3343 107.623 41.092 107.752 40.8874C108.051 40.3375 108.818 40.4013 109.289 40.6985L110.699 41.75C110.917 41.9123 111.091 42.1258 111.206 42.3716C111.321 42.6174 111.374 42.8879 111.359 43.1589C111.233 45.5043 110.759 51.6229 109.257 50.6723L105.558 48.3373C105.344 48.1945 105.184 47.9844 105.103 47.7403C105.021 47.4961 105.024 47.2318 105.11 46.9892V46.9892Z" fill="#E98862"/>
<path d="M105.995 47.4158C105.678 47.416 105.373 47.2932 105.145 47.0733L100.009 42.1359C99.8908 42.0247 99.7961 41.8912 99.7301 41.7432C99.6641 41.5952 99.628 41.4356 99.6241 41.2735C99.6201 41.1115 99.6483 40.9503 99.707 40.7992C99.7657 40.6482 99.8537 40.5102 99.9661 40.3934C100.078 40.2766 100.213 40.1831 100.361 40.1185C100.51 40.0539 100.67 40.0194 100.832 40.017C100.994 40.0146 101.155 40.0443 101.306 40.1044C101.456 40.1645 101.593 40.2539 101.709 40.3673L105.974 44.4669L116.665 33.6792C116.778 33.5647 116.913 33.4738 117.062 33.4114C117.21 33.3491 117.37 33.3166 117.531 33.3159C117.692 33.3152 117.851 33.3461 118 33.4071C118.15 33.4681 118.285 33.5578 118.4 33.6712C118.514 33.7846 118.605 33.9194 118.667 34.068C118.73 34.2165 118.762 34.3759 118.763 34.537C118.764 34.6981 118.733 34.8577 118.672 35.0068C118.611 35.1559 118.521 35.2916 118.408 35.406L106.866 47.0518C106.752 47.1672 106.617 47.2588 106.467 47.3213C106.318 47.3838 106.157 47.4159 105.995 47.4158V47.4158Z" fill="#F6605D"/>
<path d="M102.46 44.4214C102.486 44.2427 102.548 44.0712 102.642 43.9172C102.736 43.7633 102.861 43.6302 103.008 43.526C103.156 43.4218 103.323 43.3487 103.499 43.3112C103.676 43.2737 103.858 43.2725 104.035 43.3078C104.375 43.3882 104.672 43.5945 104.866 43.8853C105.06 44.176 105.136 44.5295 105.08 44.8743L105.043 46.7576C105.035 47.1559 105.173 47.5433 105.432 47.8467C105.69 48.1501 106.05 48.3485 106.445 48.4044V48.4044C106.831 48.4592 107.225 48.3735 107.554 48.1629C107.882 47.9522 108.125 47.6306 108.237 47.2565L109.197 44.0417L108.153 42.4817C108.518 41.8929 108.825 40.3703 109.458 40.8238C109.994 41.1569 111.21 41.9622 111.543 42.7252C111.55 42.7282 112.173 49.2747 111.834 49.8206L108.835 57.8418C107.397 60.1578 100.454 58.3656 100.454 58.3656L102.46 44.4214Z" fill="#E98862"/>
<path d="M105.974 44.4666L116.665 33.6789C116.778 33.5645 116.913 33.4735 117.061 33.4112C117.21 33.3488 117.369 33.3164 117.53 33.3156C117.692 33.3149 117.851 33.3459 118 33.4068C118.149 33.4678 118.285 33.5575 118.4 33.6709C118.514 33.7843 118.605 33.9191 118.667 34.0677C118.73 34.2162 118.762 34.3756 118.763 34.5367C118.764 34.6978 118.733 34.8575 118.672 35.0066C118.611 35.1557 118.521 35.2913 118.408 35.4058L106.866 47.0515" fill="#F6605D"/>
<path d="M51.4108 100.222L94.6779 96.5811C97.8635 96.6649 100.637 94.0161 101.806 91.0439L113.141 55.5138L98.3128 49.6847L88.3065 80.1194L50.2547 82.7825L51.4108 100.222Z" fill="#E8CEE5"/>
<path d="M26.2887 267.507C26.2887 267.507 27.6733 274.683 34.3934 275.084C41.1134 275.485 39.6561 280.838 39.6561 280.838H13.9759V268.007L26.2887 267.507Z" fill="#C58BF2"/>
<path d="M18.368 136.58C18.368 136.58 18.4487 134.423 18.4315 139.317C18.368 157.573 18.0512 178.425 17.2772 190.627C16.0331 210.243 12.8428 272.087 12.8428 272.087L29.7176 271.945L46.0728 135.839L18.368 136.58Z" fill="#292A2E"/>
<path d="M37.4242 158.108C37.4242 158.108 38.1234 171.356 38.2522 174.466C38.5521 181.659 38.6564 189.106 38.6564 197.55L41.317 175.414C41.317 175.414 39.3706 168.477 37.4242 158.108Z" fill="#1D1617"/>
<path d="M56.3303 267.507C56.3303 267.507 57.7149 274.683 64.435 275.084C71.155 275.485 69.6977 280.838 69.6977 280.838H44.0175V268.007L56.3303 267.507Z" fill="#C58BF2"/>
<path d="M64.5009 137.998C64.5009 137.998 65.9956 200.391 65.7766 203.441L59.5012 271.614L42.9052 271.92L44.5226 200.974C44.5226 200.974 43.3818 181.404 38.6532 163.231C36.2339 153.905 34.7779 144.354 34.308 134.73L64.5009 137.998Z" fill="#292A2E"/>
<path d="M18.184 136.578L18.1288 136.581C18.1288 136.581 18.169 135.517 18.184 136.578Z" fill="#333333"/>
<path d="M8.41641 137.731C7.06023 137.73 5.72423 137.402 4.52209 136.774C3.31995 136.147 2.28725 135.238 1.51186 134.125C0.736465 133.012 0.24133 131.729 0.0685829 130.384C-0.104164 129.039 0.050589 127.672 0.519675 126.399C0.994706 125.107 12.1636 95.5311 14.2891 90.051L30.0332 96.4297C28.8372 99.5108 24.5061 111.19 21.026 120.599L26.8074 119.97L28.6271 136.71L9.32691 137.681C9.02453 137.714 8.72058 137.731 8.41641 137.731V137.731Z" fill="#E8CEE5"/>
<path d="M66.8764 105.205C66.5286 109.294 64.8355 132.962 64.5009 137.998H18.3864C18.1261 133.456 16.9561 113.594 15.9684 104.712C15.0254 96.2365 13.1752 91.9931 14.5313 89.4873C16.7473 85.392 22.8028 83.0258 26.9318 82.4667C29.4532 82.1254 50.9489 81.8801 51.0004 81.8801C52.6889 81.8801 62.5208 82.6737 64.6941 84.3475C68.6265 87.3762 67.4842 98.0756 66.8764 105.205Z" fill="#AB8DA8"/>
<path d="M67.5133 98.9869C67.5525 98.987 67.5902 98.9721 67.6187 98.9452C67.6472 98.9184 67.6644 98.8816 67.6667 98.8425L68.0387 92.9634C68.041 92.9228 68.0271 92.8829 68.0001 92.8526C67.9731 92.8222 67.9351 92.8038 67.8945 92.8014C67.8541 92.7996 67.8145 92.8136 67.7842 92.8405C67.754 92.8675 67.7354 92.9052 67.7326 92.9456L67.3606 98.8247C67.3583 98.8653 67.3721 98.9052 67.3992 98.9355C67.4262 98.9659 67.4642 98.9843 67.5047 98.9866L67.5133 98.9869Z" fill="#0C0C0C"/>
<path d="M17.4044 104.883L17.0979 104.894L18.231 138.003L18.5375 137.993L17.4044 104.883Z" fill="#0C0C0C"/>
<path d="M56.4942 81.3209C56.4427 81.3142 55.028 86.6373 43.9888 85.8087C36.3466 85.2362 34.4821 80.0344 34.3079 80.0344C35.1319 79.8593 36.4702 79.6775 36.8361 79.4824C38.0394 78.8357 38.9162 78.0487 39.3572 76.3593C39.7022 75.0385 39.8785 69.953 39.8785 67.4015L51.6384 70.0441C51.4743 72.9222 50.3271 79.5947 54.3481 80.7757C55.0169 80.9707 55.7376 81.1501 56.4942 81.3209Z" fill="#E98862"/>
<path d="M51.2311 75.7023C46.5952 76.0682 40.6397 74.1107 39.5084 67.9255L38.4878 62.3441C37.3565 56.1589 39.6881 50.5505 45.512 49.4855C51.3357 48.4204 56.6058 52.6387 57.7368 58.8239L58.1888 61.2947C58.6228 63.6683 59.5026 75.0497 51.2311 75.7023Z" fill="#E98862"/>
<path d="M55.5297 70.0233C54.6977 65.8422 54.3159 63.0524 54.3604 60.1096C55.5324 58.055 55.2242 55.6936 54.9577 54.6742C55.765 55.1869 56.7141 55.4302 57.6684 55.3692C57.6684 55.3692 55.7299 47.5896 49.1415 45.4962C47.9298 45.0249 44.8364 44.4293 40.7292 44.9927C37.2359 45.4717 28.6247 48.0836 27.3943 57.7783V57.7839C27.3538 58.1056 26.5271 67.0379 24.8796 71.3236C22.6639 77.0847 19.5528 78.8747 19.6316 85.5224C19.7331 94.0727 35.452 95.211 44.9318 94.5713C54.4116 93.9316 59.7053 90.8143 59.7746 84.6524C59.85 77.7477 57.1949 78.389 55.5297 70.0233Z" fill="#0A0A0A"/>
<path d="M293.018 281.053H4.62049C4.56356 281.053 4.50896 281.031 4.4687 280.99C4.42844 280.95 4.40582 280.896 4.40582 280.839C4.40582 280.782 4.42844 280.727 4.4687 280.687C4.50896 280.647 4.56356 280.624 4.62049 280.624H293.018C293.075 280.624 293.13 280.647 293.17 280.687C293.21 280.727 293.233 280.782 293.233 280.839C293.233 280.896 293.21 280.95 293.17 280.99C293.13 281.031 293.075 281.053 293.018 281.053V281.053Z" fill="#292A2E"/>
</svg>

